<?xml version="1.0" encoding="UTF-8"?>
<svg width="842px" height="170px" viewBox="0 0 842 170" version="1.1" xmlns="http://www.w3.org/2000/svg" xmlns:xlink="http://www.w3.org/1999/xlink">
    <!-- Generator: Sketch 57.1 (83088) - https://sketch.com -->
    <title>logo-white</title>
    <desc>Created with Sketch.</desc>
    <g id="Page-1" stroke="none" stroke-width="1" fill="none" fill-rule="evenodd">
        <g id="logo-white" transform="translate(0.000000, -1.000000)" fill="#FFFFFF" fill-rule="nonzero">
            <path d="M825.231,35.132 C834.599,35.132 841.894,42.363 841.894,51.479 C841.894,60.597 834.6,67.827 825.231,67.827 C815.862,67.827 808.568,60.596 808.568,51.479 C808.568,42.363 815.862,35.132 825.231,35.132 Z M825.231,64.055 C832.462,64.055 837.806,58.711 837.806,51.479 C837.806,44.248 832.462,38.904 825.231,38.904 C817.999,38.904 812.655,44.248 812.655,51.479 C812.655,58.711 817.999,64.055 825.231,64.055 Z M819.712,44.144 L826.157,44.144 C830.135,44.144 832.041,46.049 832.041,49.188 C832.041,50.757 831.312,51.766 830.64,52.438 C830.248,52.831 829.744,53.167 829.239,53.391 L832.321,57.875 L828.398,57.875 L825.596,53.952 L823.354,53.952 L823.354,57.875 L819.712,57.875 L819.712,44.144 L819.712,44.144 Z M826.157,50.868 C827.558,50.868 828.455,50.308 828.455,49.187 C828.455,48.066 827.558,47.505 826.157,47.505 L823.355,47.505 L823.355,50.867 L826.157,50.868 Z" id="Shape"></path>
            <path d="M114.551,34.669 C101.439,34.669 92.981,39.743 88.235,43.964 C85.435,46.269 83.141,48.888 81.395,51.764 C79.825,48.832 77.839,46.235 75.482,44.034 C69.007,37.82 60.441,34.669 50.018,34.669 C41.125,34.669 33.736,37.221 27.421,42.486 C25.494,44.138 23.838,45.909 22.408,47.849 L22.408,36.54 L0,36.539 L0,134.704 L22.408,134.704 L22.408,80.947 C22.408,66.514 32.482,55.207 45.343,55.207 C58.258,55.207 64.535,62.402 64.535,77.204 L64.535,134.704 L86.943,134.704 L86.943,80.947 C86.943,66.514 97.015,55.207 109.875,55.207 C122.79,55.207 129.067,62.402 129.067,77.204 L129.067,134.704 L151.475,134.704 L151.475,76.269 C151.475,50.221 137.672,34.669 114.551,34.669 Z" id="Path"></path>
            <path d="M211.193,34.669 C182.621,34.669 160.24,57.05 160.24,85.622 C160.24,114.193 182.621,136.574 211.193,136.574 C239.765,136.574 262.146,114.193 262.146,85.622 C262.146,57.05 239.765,34.669 211.193,34.669 Z M211.193,116.036 C194.679,116.036 183.583,103.813 183.583,85.622 C183.583,67.43 194.679,55.207 211.193,55.207 C227.707,55.207 238.8,67.43 238.8,85.622 C238.8,103.813 227.707,116.036 211.193,116.036 Z" id="Shape"></path>
            <path d="M346.666,47.513 C344.734,45.484 342.542,43.611 340.242,42.031 C335.472,38.672 327.6,34.668 317.185,34.668 C290.372,34.668 270.91,56.096 270.91,85.621 C270.91,115.146 290.372,136.573 317.185,136.573 C327.811,136.573 335.588,132.673 340.228,129.412 C342.614,127.772 344.806,125.869 346.665,123.829 L346.665,134.703 L369.073,134.703 L369.073,0.999 L346.665,0.999 L346.666,47.513 Z M320.926,55.207 C337.043,55.207 346.666,66.577 346.666,85.622 C346.666,104.667 337.043,116.036 320.926,116.036 C303.974,116.036 294.254,104.951 294.254,85.622 C294.254,66.293 303.974,55.207 320.926,55.207 Z" id="Shape"></path>
            <path d="M453.03,89.363 C453.03,105.066 442.829,116.035 428.225,116.035 C413.659,116.035 407.163,108.963 407.163,93.103 L407.163,36.538 L384.755,36.538 L384.755,94.973 C384.755,121.41 398.897,136.573 423.55,136.573 C432.541,136.573 440.337,134.038 447.423,128.79 C449.723,126.95 451.577,125.136 453.03,123.296 L453.03,134.703 L475.438,134.703 L475.438,36.538 L453.03,36.538 L453.03,89.363 Z" id="Path"></path>
            <rect id="Rectangle" x="491.122" y="1" width="22.408" height="133.704"></rect>
            <polygon id="Path" points="581.58 134.704 566.599 170.245 543.021 170.245 558.611 133.257 524.453 36.539 547.966 36.539 571.406 102.903 599.379 36.539 622.957 36.539 582.155 133.339"></polygon>
            <path d="M665.191,135.404 C648.782,135.404 636.553,130.179 627.805,119.433 C623.903,114.551 621.378,109.319 620.088,103.442 L620.032,103.181 L641.96,103.181 L642.01,103.322 C642.887,105.766 644.487,108.196 646.636,110.351 C651.253,114.964 657.322,117.207 665.193,117.207 C677.539,117.207 684.62,113.195 684.62,106.201 C684.62,99.441 673.163,97.023 661.034,94.464 C658.932,94.019 656.894,93.587 654.859,93.13 C634.608,88.572 624.762,79.08 624.762,64.112 C624.762,50.215 638.836,35.841 662.389,35.841 C681.802,35.841 692.218,44.026 697.537,50.892 C700.972,55.279 703.376,60.339 704.683,65.934 L704.744,66.196 L683.755,66.196 L683.699,66.064 C682.689,63.636 681.362,61.705 679.645,60.162 C676.681,57.374 671.271,54.038 662.389,54.038 C652.135,54.038 645.765,57.97 645.765,64.3 C645.765,70.958 656.954,73.285 668.8,75.749 C671.01,76.209 673.266,76.679 675.528,77.187 C695.779,81.743 705.623,91.234 705.623,106.201 C705.622,120.265 692.969,135.404 665.191,135.404 Z" id="Path"></path>
            <path d="M756.577,135.404 C740.168,135.404 727.939,130.179 719.191,119.433 C715.289,114.551 712.764,109.319 711.474,103.442 L711.418,103.181 L733.346,103.181 L733.396,103.322 C734.273,105.766 735.873,108.196 738.022,110.351 C742.639,114.964 748.708,117.207 756.579,117.207 C768.925,117.207 776.006,113.195 776.006,106.201 C776.006,99.441 764.549,97.023 752.42,94.464 C750.318,94.019 748.28,93.587 746.245,93.13 C725.994,88.572 716.148,79.08 716.148,64.112 C716.148,50.215 730.222,35.841 753.775,35.841 C773.188,35.841 783.604,44.026 788.923,50.892 C792.358,55.279 794.762,60.339 796.069,65.934 L796.13,66.196 L775.14,66.196 L775.084,66.064 C774.074,63.636 772.747,61.705 771.03,60.162 C768.066,57.374 762.656,54.038 753.774,54.038 C743.52,54.038 737.15,57.97 737.15,64.3 C737.15,70.958 748.339,73.285 760.185,75.749 C762.395,76.209 764.651,76.679 766.913,77.187 C787.164,81.743 797.008,91.234 797.008,106.201 C797.007,120.265 784.354,135.404 756.577,135.404 Z" id="Path"></path>
        </g>
    </g>
</svg>