<?xml version="1.0" encoding="iso-8859-1"?>
<!-- Generator: Adobe Illustrator 26.4.1, SVG Export Plug-In . SVG Version: 6.00 Build 0)  -->
<svg version="1.1" id="Layer_1" xmlns="http://www.w3.org/2000/svg" xmlns:xlink="http://www.w3.org/1999/xlink" x="0px" y="0px"
	 viewBox="0 0 841.894 169.245" enable-background="new 0 0 841.894 169.245" xml:space="preserve">
<g>
	<path d="M825.231,34.132c9.368,0,16.663,7.231,16.663,16.347c0,9.118-7.294,16.348-16.663,16.348
		c-9.369,0-16.663-7.231-16.663-16.348C808.568,41.363,815.862,34.132,825.231,34.132z M825.231,63.055
		c7.231,0,12.575-5.344,12.575-12.576c0-7.231-5.344-12.575-12.575-12.575c-7.232,0-12.576,5.344-12.576,12.575
		C812.655,57.711,817.999,63.055,825.231,63.055z M819.712,43.144l6.445,0c3.978,0,5.884,1.905,5.884,5.044
		c0,1.569-0.729,2.578-1.401,3.25c-0.392,0.393-0.896,0.729-1.401,0.953l3.082,4.484h-3.923l-2.802-3.923h-2.242v3.923l-3.642,0
		V43.144z M826.157,49.868c1.401,0,2.298-0.56,2.298-1.681c0-1.121-0.897-1.682-2.298-1.682l-2.802,0v3.362L826.157,49.868z"/>
	<path d="M114.551,33.669c-13.112,0-21.57,5.074-26.316,9.295c-2.8,2.305-5.094,4.924-6.84,7.8c-1.57-2.932-3.556-5.529-5.913-7.73
		c-6.475-6.214-15.041-9.365-25.464-9.365c-8.893,0-16.282,2.552-22.597,7.817c-1.927,1.652-3.583,3.423-5.013,5.363l0-11.309
		L0,35.539l0,98.165l22.408,0l0-53.757c0-14.433,10.074-25.74,22.935-25.74c12.915,0,19.192,7.195,19.192,21.997l0,57.5l22.408,0
		l0-53.757c0-14.433,10.072-25.74,22.932-25.74c12.915,0,19.192,7.195,19.192,21.997l0,57.5l22.408,0l0-58.435
		C151.476,49.221,137.672,33.669,114.551,33.669z"/>
	<path d="M211.193,33.669c-28.572,0-50.953,22.381-50.953,50.953c0,28.571,22.381,50.952,50.953,50.952
		c28.572,0,50.953-22.381,50.953-50.952C262.146,56.05,239.765,33.669,211.193,33.669z M211.193,115.036
		c-16.514,0-27.61-12.223-27.61-30.414c0-18.192,11.096-30.415,27.61-30.415S238.8,66.43,238.8,84.622
		C238.8,102.813,227.707,115.036,211.193,115.036z"/>
	<path d="M346.666,46.513c-1.932-2.029-4.124-3.902-6.424-5.482c-4.77-3.359-12.642-7.363-23.057-7.363
		c-26.813,0-46.275,21.428-46.275,50.953c0,29.525,19.462,50.952,46.275,50.952c10.626,0,18.403-3.9,23.043-7.161
		c2.386-1.64,4.578-3.543,6.437-5.583v10.874l22.408,0l0-133.704l-22.408,0L346.666,46.513z M320.926,54.207
		c16.117,0,25.74,11.37,25.74,30.415s-9.623,30.414-25.74,30.414c-16.952,0-26.672-11.085-26.672-30.414
		S303.974,54.207,320.926,54.207z"/>
	<path d="M453.03,88.363c0,15.703-10.201,26.672-24.805,26.672c-14.566,0-21.062-7.072-21.062-22.932l0-56.565l-22.408,0l0,58.435
		c0,26.437,14.142,41.6,38.795,41.6c8.991,0,16.787-2.535,23.873-7.783c2.3-1.84,4.154-3.654,5.607-5.494l0,11.407l22.408,0
		l0-98.165l-22.408,0V88.363z"/>
	<rect x="491.122" y="0" width="22.408" height="133.704"/>
	<polygon points="581.58,133.704 566.599,169.245 543.021,169.245 558.611,132.257 524.453,35.539 547.966,35.539 571.406,101.903 
		599.379,35.539 622.957,35.539 582.155,132.339 	"/>
	<path d="M665.191,134.404c-16.409,0-28.638-5.225-37.386-15.971c-3.902-4.882-6.427-10.114-7.717-15.991l-0.056-0.261h21.928
		l0.05,0.141c0.877,2.444,2.477,4.874,4.626,7.029c4.617,4.613,10.686,6.856,18.557,6.856c12.346,0,19.427-4.012,19.427-11.006
		c0-6.76-11.457-9.178-23.586-11.737c-2.102-0.445-4.14-0.877-6.175-1.334c-20.251-4.558-30.097-14.05-30.097-29.018
		c0-13.897,14.074-28.271,37.627-28.271c19.413,0,29.829,8.185,35.148,15.051c3.435,4.387,5.839,9.447,7.146,15.042l0.061,0.262
		h-20.989l-0.056-0.132c-1.01-2.428-2.337-4.359-4.054-5.902c-2.964-2.788-8.374-6.124-17.256-6.124
		c-10.254,0-16.624,3.932-16.624,10.262c0,6.658,11.189,8.985,23.035,11.449c2.21,0.46,4.466,0.93,6.728,1.438
		c20.251,4.556,30.095,14.047,30.095,29.014C705.622,119.265,692.969,134.404,665.191,134.404z"/>
	<path d="M756.577,134.404c-16.409,0-28.638-5.225-37.386-15.971c-3.902-4.882-6.427-10.114-7.717-15.991l-0.056-0.261h21.928
		l0.05,0.141c0.877,2.444,2.477,4.874,4.626,7.029c4.617,4.613,10.686,6.856,18.557,6.856c12.346,0,19.427-4.012,19.427-11.006
		c0-6.76-11.457-9.178-23.586-11.737c-2.102-0.445-4.14-0.877-6.175-1.334c-20.251-4.558-30.097-14.05-30.097-29.018
		c0-13.897,14.074-28.271,37.627-28.271c19.413,0,29.829,8.185,35.148,15.051c3.435,4.387,5.839,9.447,7.146,15.042l0.061,0.262
		H775.14l-0.056-0.132c-1.01-2.428-2.337-4.359-4.054-5.902c-2.964-2.788-8.374-6.124-17.256-6.124
		c-10.254,0-16.624,3.932-16.624,10.262c0,6.658,11.189,8.985,23.035,11.449c2.21,0.46,4.466,0.93,6.728,1.438
		c20.251,4.556,30.095,14.047,30.095,29.014C797.007,119.265,784.354,134.404,756.577,134.404z"/>
</g>
<g>
</g>
<g>
</g>
<g>
</g>
<g>
</g>
<g>
</g>
<g>
</g>
</svg>
